<svg width="17px" height="18px" viewBox="0 0 17 18" version="1.1" xmlns="http://www.w3.org/2000/svg" xmlns:xlink="http://www.w3.org/1999/xlink">
  <!-- Generator: Sketch 46.2 (44496) - http://www.bohemiancoding.com/sketch -->
  <desc>Created with Sketch.</desc>
  <defs></defs>
  <g id="Symbols" stroke="none" stroke-width="1" fill="none" fill-rule="evenodd">
    <g id="skjemma/mørk/søk-" transform="translate(-101.000000, -11.000000)" fill-rule="nonzero" fill="#FFFFFF">
      <g id="search" transform="translate(101.000000, 11.000000)">
        <path d="M6.375,12.96 C7.88445833,12.96 9.27208333,12.42 10.3650417,11.52576 L15.7894583,17.0676 C16.065,17.35056 16.5126667,17.352 16.7910417,17.07048 C17.0694167,16.78896 17.0694167,16.33392 16.793875,16.0524 L11.362375,10.50336 C12.2286667,9.39816 12.75,7.99992 12.75,6.48 C12.75,2.90664 9.89045833,0 6.375,0 C2.85954167,0 0,2.90664 0,6.48 C0,10.05336 2.85954167,12.96 6.375,12.96 Z M6.375,1.44 C9.10845833,1.44 11.3333333,3.70008 11.3333333,6.48 C11.3333333,9.25848 9.10845833,11.52 6.375,11.52 C3.640125,11.52 1.41666667,9.25848 1.41666667,6.48 C1.41666667,3.70008 3.640125,1.44 6.375,1.44 Z" id="Shape"></path>
      </g>
    </g>
  </g>
</svg>
