<svg xmlns="http://www.w3.org/2000/svg" width="30" height="30" viewBox="0 0 30 30">
    <path fill="#BA3A26" fill-rule="nonzero" d="M26.875 20.021h-6.058c-4.106-2.856-2.218-7.062-.7-10.416.633-1.396 1.133-2.498 1.133-3.376 0-4.077-3.145-6.209-6.251-6.209C11.892.021 8.75 2.154 8.75 6.229c0 .881.502 1.987 1.137 3.382 1.522 3.349 3.41 7.545-.703 10.409H3.125C1.403 20.02 0 21.38 0 23.104v3.75c0 .345.28.625.625.625h.625v1.875c0 .345.28.625.625.625h26.25c.345 0 .625-.28.625-.625v-1.875h.625c.345 0 .625-.28.625-.625v-3.75c0-1.724-1.402-3.083-3.125-3.083zm.625 8.75h-25V27.48h25v1.291z"/>
</svg>
