<svg xmlns="http://www.w3.org/2000/svg" width="32" height="32" viewBox="0 0 32 32">
  <g fill="#78706A" fill-rule="evenodd">
    <path d="M0 16C0 7.181 7.144 0 15.946 0c8.816 0 15.819 6.925 15.947 15.757V16c0 4.224-1.62 8.217-4.593 11.239C24.264 30.31 20.233 32 15.946 32c-2.143 0-4.223-.423-6.148-1.23a16.204 16.204 0 0 1-5.192-3.52A15.962 15.962 0 0 1 0 16zm10.946 7.552c.6-.217 1.198-.435 1.786-.653l.02-1.244c.944.562 2.067.87 3.215.87a6.47 6.47 0 0 0 3.304-.921l-.021 1.295c.574.218 1.148.422 1.71.628 2.347.844 4.401 1.6 5.791 2.432a14.697 14.697 0 0 0 3.866-10.176C30.503 7.655 24.06 1.28 15.947 1.28 7.858 1.28 1.275 7.885 1.275 16c0 3.725 1.378 7.245 3.877 9.984 1.455-.87 3.65-1.664 5.793-2.432z"/>
    <path d="M18.826 20.53a5.585 5.585 0 0 1-2.88.803 5.478 5.478 0 0 1-2.81-.762c-2.27-1.26-3.834-4.03-3.834-7.23 0-4.419 2.976-8.008 6.644-8.008s6.645 3.59 6.645 8.008c0 3.171-1.538 5.914-3.765 7.189z"/>
  </g>
</svg>
