<svg xmlns="http://www.w3.org/2000/svg" width="27" height="32" viewBox="0 0 27 32">
    <g fill="none" fill-rule="evenodd" stroke="#000">
        <path stroke-linecap="round" stroke-linejoin="round" d="M.608 27.852l2.37-2.37 2.37 2.37 2.37-2.37 2.371 2.37 2.37-2.37 2.37 2.37 2.371-2.37 2.37 2.37V.592L17.2 2.964 14.83.593l-2.37 2.37-2.37-2.37-2.371 2.37-2.37-2.37-2.371 2.37L.608.593zM4.163 7.704h7.111M4.163 11.26h4.74M4.163 14.815h5.926M4.163 18.37H7.72M14.83 7.704h1.185M14.83 11.26h1.185M14.83 14.815h1.185M14.83 18.37h1.185"/>
        <path fill="#FFF" d="M19.556 28.444l-4.18 2.198.798-4.654-3.382-3.297 4.674-.679 2.09-4.234 2.09 4.234 4.673.68-3.382 3.296.798 4.654z"/>
    </g>
</svg>
