<svg xmlns="http://www.w3.org/2000/svg" width="32" height="32" viewBox="0 0 32 32">
    <g fill="none" fill-rule="evenodd" stroke="#3E3832" stroke-linecap="round" stroke-linejoin="round">
        <path d="M20.684 3.333c0 1.472-4.476 2.667-10 2.667-5.523 0-10-1.195-10-2.667 0-1.472 4.477-2.666 10-2.666 5.524 0 10 1.194 10 2.666z"/>
        <path d="M20.684 3.333v4c0 1.472-4.476 2.667-10 2.667-5.523 0-10-1.195-10-2.667v-4"/>
        <path d="M20.684 7.333v4c0 1.472-4.476 2.667-10 2.667-5.523 0-10-1.195-10-2.667v-4M31.35 20.667c0 1.472-4.476 2.666-10 2.666-5.522 0-10-1.194-10-2.666S15.828 18 21.35 18c5.524 0 10 1.195 10 2.667z"/>
        <path d="M31.35 20.667v4c0 1.472-4.476 2.666-10 2.666-5.522 0-10-1.194-10-2.666v-4"/>
        <path d="M31.35 24.667v4c0 1.472-4.476 2.666-10 2.666-5.522 0-10-1.194-10-2.666v-4M20.684 11.333v4c0 1.472-4.476 2.667-10 2.667-5.523 0-10-1.195-10-2.667v-4"/>
        <path d="M.684 15.333v4c0 1.472 4.477 2.667 10 2.667h.666"/>
        <path d="M.684 19.333v4c0 1.472 4.477 2.667 10 2.667h.666M20.684 15.333V18"/>
    </g>
</svg>
